<?xml version="1.0" standalone="no"?>
<!DOCTYPE svg PUBLIC "-//W3C//DTD SVG 20010904//EN"
 "http://www.w3.org/TR/2001/REC-SVG-20010904/DTD/svg10.dtd">
<svg version="1.0" xmlns="http://www.w3.org/2000/svg"
 width="1920.000000pt" height="1920.000000pt" viewBox="0 0 1920.000000 1920.000000"
 preserveAspectRatio="xMidYMid meet">
<metadata>
Created by potrace 1.11, written by Peter Selinger 2001-2013
</metadata>
<g transform="translate(0.000000,1920.000000) scale(0.100000,-0.100000)"
fill="#000000" stroke="none">
<path d="M2500 19029 c-218 -25 -481 -92 -685 -175 -904 -370 -1539 -1205
-1644 -2166 -15 -137 -15 -14039 0 -14176 96 -875 639 -1663 1424 -2063 295
-151 600 -244 917 -278 137 -15 14039 -15 14176 0 875 96 1663 639 2063 1424
151 295 244 600 278 917 15 137 15 14039 0 14176 -6 53 -21 151 -34 218 -219
1127 -1165 1998 -2307 2123 -119 13 -14073 13 -14188 0z"/>
</g>
</svg>
